<svg width="163" height="64" viewBox="0 0 163 64" fill="none" xmlns="http://www.w3.org/2000/svg">
<path fill-rule="evenodd" clip-rule="evenodd" d="M20.1987 25.8898C16.3393 33.605 10.8847 38.6762 8.01559 37.2168C5.1465 35.7573 5.94938 28.3198 9.80886 20.6047C13.6683 12.8895 19.1229 7.81825 21.992 9.27771C24.8611 10.7372 24.0582 18.1747 20.1987 25.8898ZM25.5401 13.4692C25.805 25.0918 19.3057 33.5258 14.4846 37.5717C13.7321 38.2032 13.9631 39.5065 14.9192 39.7213C24.298 41.8283 56.3897 48.9935 56.9689 48.5193C57.0113 48.4847 57.0625 48.4446 57.1209 48.3988C57.9747 47.7298 60.3799 45.8453 59.5587 41.8495C59.5142 41.6333 59.3969 41.4383 59.2338 41.2902L27.5242 12.498C26.7663 11.8099 25.5167 12.4437 25.5401 13.4692ZM58.7918 49.061C58.6142 49.199 58.4986 49.2887 58.4895 49.3585C58.4426 49.7173 60.1952 50.1707 60.1952 50.1707C62.7953 48.5183 62.9186 46.0647 63.0041 44.3623C63.0109 44.2279 63.0174 44.0982 63.0249 43.9739L61.0448 42.8553C61.3287 47.0905 59.5276 48.4895 58.7918 49.061Z" fill="#009FFD"/>
<path d="M97.072 21.064H89.728V43.132C89.728 43.888 89.296 44.32 88.54 44.32H85.696C84.94 44.32 84.508 43.888 84.508 43.132V21.064H77.128C76.372 21.064 75.94 20.632 75.94 19.876V17.212C75.94 16.456 76.372 16.024 77.128 16.024H97.072C97.828 16.024 98.26 16.456 98.26 17.212V19.876C98.26 20.632 97.828 21.064 97.072 21.064ZM102.601 35.824C103.105 38.884 104.761 40 108.037 40C110.377 40 111.709 39.388 112.429 38.164C112.753 37.624 113.005 37.624 113.617 37.624H116.641C117.361 37.624 117.721 37.804 117.577 38.524C116.893 42.412 113.077 44.716 107.893 44.716C101.125 44.716 97.2011 41.116 97.2011 33.52C97.2011 25.924 101.053 22.288 107.533 22.288C113.869 22.288 117.685 26.068 117.685 33.124C117.685 34.924 116.749 35.824 114.805 35.824H102.601ZM112.429 31.684C112.321 28.336 110.665 26.968 107.605 26.968C104.509 26.968 102.889 28.3 102.529 31.684H112.429ZM121.099 43.132V17.212C121.099 16.456 121.531 16.024 122.287 16.024H125.131C125.887 16.024 126.319 16.456 126.319 17.212V31.648L133.735 23.404C134.239 22.864 134.707 22.648 135.535 22.648H139.171C139.963 22.648 140.323 23.296 139.819 23.836L133.663 30.568L140.899 43.168C141.223 43.744 140.935 44.32 140.143 44.32H136.651C135.751 44.32 135.355 44.068 135.031 43.492L129.991 34.636L126.319 38.668V43.132C126.319 43.888 125.887 44.32 125.131 44.32H122.287C121.531 44.32 121.099 43.888 121.099 43.132ZM155.316 38.596V34.636C147.864 34.78 145.488 35.752 145.488 37.804C145.488 39.1 146.856 40.144 149.268 40.144C151.392 40.144 153.516 39.46 155.316 38.596ZM145.992 29.344H142.644C141.924 29.344 141.492 28.948 141.564 28.3C141.888 24.592 145.632 22.252 151.248 22.252C157.224 22.252 160.464 25.24 160.464 30.172V43.132C160.464 43.888 160.032 44.32 159.276 44.32H156.432C155.676 44.32 155.244 43.888 155.244 43.132V42.34C153.48 43.744 150.672 44.68 148.296 44.68C143.364 44.68 140.304 42.052 140.304 37.768C140.304 32.548 144.48 30.352 155.244 30.1V29.884C155.244 27.796 154.2 26.824 151.14 26.824C148.908 26.824 147.828 27.364 147.216 28.516C146.892 29.128 146.604 29.344 145.992 29.344Z" fill="#009FFD"/>
</svg>
